<svg data-v-423bf9ae="" xmlns="http://www.w3.org/2000/svg" viewBox="0 0 381 103" class="iconLeft"><!----><!----><!----><g data-v-423bf9ae="" id="691a26cf-234a-4618-a00b-1586de3189b9" fill="black" transform="matrix(6.629834114415414,0,0,6.629834114415414,119.44611220865073,10.655046458198619)"><path d="M5.11 3.30L5.11 4.47L5.11 4.47Q5.01 4.44 4.90 4.41L4.90 4.41L4.90 4.41Q4.80 4.38 4.68 4.36L4.68 4.36L4.68 4.36Q4.56 4.34 4.45 4.34L4.45 4.34L4.45 4.34Q3.85 4.34 3.46 4.61L3.46 4.61L3.46 4.61Q3.07 4.89 2.84 5.31L2.84 5.31L2.84 5.31Q2.62 5.73 2.53 6.24L2.53 6.24L2.53 6.24Q2.44 6.76 2.44 7.25L2.44 7.25L2.44 10.50L1.12 10.50L1.12 3.36L2.24 3.36L2.39 4.47L2.39 4.47Q2.59 4.12 2.83 3.84L2.83 3.84L2.83 3.84Q3.07 3.57 3.39 3.40L3.39 3.40L3.39 3.40Q3.71 3.23 4.13 3.20L4.13 3.20L4.13 3.20Q4.55 3.16 5.11 3.30L5.11 3.30ZM9.38 3.19L9.38 3.19L9.38 3.19Q10.15 3.23 10.75 3.51L10.75 3.51L10.75 3.51Q11.00 3.64 11.26 3.82L11.26 3.82L11.26 3.82Q11.51 4.00 11.70 4.27L11.70 4.27L11.70 4.27Q11.90 4.54 12.02 4.89L12.02 4.89L12.02 4.89Q12.14 5.25 12.14 5.73L12.14 5.73L12.14 10.50L10.91 10.50L10.74 9.63L10.74 9.63Q10.74 9.63 10.60 9.80L10.60 9.80L10.60 9.80Q10.46 9.97 10.19 10.16L10.19 10.16L10.19 10.16Q9.93 10.35 9.54 10.51L9.54 10.51L9.54 10.51Q9.16 10.67 8.68 10.67L8.68 10.67L8.68 10.67Q7.52 10.67 6.80 10.14L6.80 10.14L6.80 10.14Q6.09 9.62 6.09 8.46L6.09 8.46L6.09 8.46Q6.09 7.78 6.41 7.34L6.41 7.34L6.41 7.34Q6.73 6.90 7.20 6.64L7.20 6.64L7.20 6.64Q7.67 6.38 8.20 6.29L8.20 6.29L8.20 6.29Q8.72 6.19 9.13 6.19L9.13 6.19L10.82 6.19L10.82 5.71L10.82 5.71Q10.77 5.07 10.48 4.75L10.48 4.75L10.48 4.75Q10.19 4.42 9.78 4.32L9.78 4.32L9.78 4.32Q9.37 4.21 8.88 4.29L8.88 4.29L8.88 4.29Q8.40 4.37 7.98 4.50L7.98 4.50L7.98 4.50Q7.56 4.63 7.25 4.78L7.25 4.78L7.25 4.78Q6.94 4.93 6.86 4.98L6.86 4.98L6.86 3.86L6.86 3.86Q7.25 3.68 7.67 3.53L7.67 3.53L7.67 3.53Q8.04 3.40 8.48 3.30L8.48 3.30L8.48 3.30Q8.93 3.19 9.38 3.19ZM8.79 9.60L8.79 9.60L8.79 9.60Q9.63 9.60 10.16 9.21L10.16 9.21L10.16 9.21Q10.70 8.81 10.82 8.16L10.82 8.16L10.82 7.14L10.08 7.14L10.08 7.14Q9.81 7.14 9.37 7.16L9.37 7.16L9.37 7.16Q8.93 7.18 8.51 7.29L8.51 7.29L8.51 7.29Q8.09 7.41 7.78 7.67L7.78 7.67L7.78 7.67Q7.48 7.92 7.48 8.40L7.48 8.40L7.48 8.40Q7.48 8.69 7.60 8.92L7.60 8.92L7.60 8.92Q7.73 9.14 7.92 9.30L7.92 9.30L7.92 9.30Q8.11 9.45 8.34 9.53L8.34 9.53L8.34 9.53Q8.58 9.60 8.79 9.60ZM18.24 5.12L16.35 5.12L16.35 8.46L16.35 8.46Q16.35 9.59 17.32 9.59L17.32 9.59L17.32 9.59Q17.72 9.59 18.14 9.38L18.14 9.38L18.14 10.40L18.14 10.40Q17.57 10.67 16.93 10.67L16.93 10.67L16.93 10.67Q16.00 10.67 15.49 10.14L15.49 10.14L15.49 10.14Q14.98 9.62 14.98 8.60L14.98 8.60L14.98 5.12L13.71 5.12L13.71 4.05L14.98 4.05L14.98 1.95L16.35 1.62L16.35 4.05L18.24 4.05L18.24 5.12ZM23.28 10.67L23.28 10.67L23.28 10.67Q22.08 10.67 21.33 10.31L21.33 10.31L21.33 10.31Q20.58 9.95 20.16 9.39L20.16 9.39L20.16 9.39Q19.74 8.83 19.59 8.14L19.59 8.14L19.59 8.14Q19.43 7.45 19.43 6.78L19.43 6.78L19.43 6.78Q19.43 6.10 19.65 5.46L19.65 5.46L19.65 5.46Q19.87 4.82 20.28 4.31L20.28 4.31L20.28 4.31Q20.69 3.81 21.29 3.50L21.29 3.50L21.29 3.50Q21.90 3.19 22.68 3.19L22.68 3.19L22.68 3.19Q23.62 3.19 24.25 3.52L24.25 3.52L24.25 3.52Q24.88 3.85 25.26 4.38L25.26 4.38L25.26 4.38Q25.63 4.90 25.79 5.54L25.79 5.54L25.79 5.54Q25.94 6.17 25.94 6.78L25.94 6.78L25.94 7.22L20.83 7.22L20.83 7.22Q20.89 7.90 21.14 8.41L21.14 8.41L21.14 8.41Q21.25 8.64 21.42 8.86L21.42 8.86L21.42 8.86Q21.59 9.07 21.83 9.24L21.83 9.24L21.83 9.24Q22.08 9.41 22.40 9.51L22.40 9.51L22.40 9.51Q22.72 9.60 23.14 9.60L23.14 9.60L23.14 9.60Q23.59 9.60 23.99 9.50L23.99 9.50L23.99 9.50Q24.39 9.39 24.70 9.27L24.70 9.27L24.70 9.27Q25.06 9.11 25.37 8.92L25.37 8.92L25.38 10.12L25.38 10.12Q25.38 10.12 25.22 10.21L25.22 10.21L25.22 10.21Q25.06 10.30 24.78 10.40L24.78 10.40L24.78 10.40Q24.50 10.50 24.12 10.58L24.12 10.58L24.12 10.58Q23.73 10.67 23.28 10.67ZM20.83 6.24L24.54 6.24L24.54 6.24Q24.54 5.89 24.44 5.54L24.44 5.54L24.44 5.54Q24.33 5.18 24.11 4.89L24.11 4.89L24.11 4.89Q23.88 4.61 23.53 4.43L23.53 4.43L23.53 4.43Q23.18 4.26 22.68 4.26L22.68 4.26L22.68 4.26Q22.25 4.26 21.90 4.43L21.90 4.43L21.90 4.43Q21.56 4.61 21.32 4.89L21.32 4.89L21.32 4.89Q21.08 5.18 20.96 5.54L20.96 5.54L20.96 5.54Q20.83 5.89 20.83 6.24L20.83 6.24ZM31.08 10.67L31.08 10.67L31.08 10.67Q29.88 10.67 29.13 10.31L29.13 10.31L29.13 10.31Q28.38 9.95 27.96 9.39L27.96 9.39L27.96 9.39Q27.54 8.83 27.38 8.14L27.38 8.14L27.38 8.14Q27.23 7.45 27.23 6.78L27.23 6.78L27.23 6.78Q27.23 6.10 27.45 5.46L27.45 5.46L27.45 5.46Q27.66 4.82 28.08 4.31L28.08 4.31L28.08 4.31Q28.49 3.81 29.09 3.50L29.09 3.50L29.09 3.50Q29.69 3.19 30.48 3.19L30.48 3.19L30.48 3.19Q31.42 3.19 32.05 3.52L32.05 3.52L32.05 3.52Q32.68 3.85 33.05 4.38L33.05 4.38L33.05 4.38Q33.43 4.90 33.59 5.54L33.59 5.54L33.59 5.54Q33.74 6.17 33.74 6.78L33.74 6.78L33.74 7.22L28.63 7.22L28.63 7.22Q28.69 7.90 28.94 8.41L28.94 8.41L28.94 8.41Q29.05 8.64 29.22 8.86L29.22 8.86L29.22 8.86Q29.39 9.07 29.63 9.24L29.63 9.24L29.63 9.24Q29.88 9.41 30.20 9.51L30.20 9.51L30.20 9.51Q30.52 9.60 30.94 9.60L30.94 9.60L30.94 9.60Q31.39 9.60 31.79 9.50L31.79 9.50L31.79 9.50Q32.19 9.39 32.49 9.27L32.49 9.27L32.49 9.27Q32.86 9.11 33.17 8.92L33.17 8.92L33.18 10.12L33.18 10.12Q33.18 10.12 33.02 10.21L33.02 10.21L33.02 10.21Q32.86 10.30 32.58 10.40L32.58 10.40L32.58 10.40Q32.30 10.50 31.91 10.58L31.91 10.58L31.91 10.58Q31.53 10.67 31.08 10.67ZM28.63 6.24L32.34 6.24L32.34 6.24Q32.34 5.89 32.23 5.54L32.23 5.54L32.23 5.54Q32.13 5.18 31.91 4.89L31.91 4.89L31.91 4.89Q31.68 4.61 31.33 4.43L31.33 4.43L31.33 4.43Q30.98 4.26 30.48 4.26L30.48 4.26L30.48 4.26Q30.04 4.26 29.70 4.43L29.70 4.43L29.70 4.43Q29.36 4.61 29.12 4.89L29.12 4.89L29.12 4.89Q28.88 5.18 28.76 5.54L28.76 5.54L28.76 5.54Q28.63 5.89 28.63 6.24L28.63 6.24ZM39.37 5.12L37.48 5.12L37.48 8.46L37.48 8.46Q37.48 9.59 38.44 9.59L38.44 9.59L38.44 9.59Q38.85 9.59 39.27 9.38L39.27 9.38L39.27 10.40L39.27 10.40Q38.70 10.67 38.05 10.67L38.05 10.67L38.05 10.67Q37.13 10.67 36.62 10.14L36.62 10.14L36.62 10.14Q36.11 9.62 36.11 8.60L36.11 8.60L36.11 5.12L34.83 5.12L34.83 4.05L36.11 4.05L36.11 1.95L37.48 1.62L37.48 4.05L39.37 4.05L39.37 5.12Z"></path></g><!----><g data-v-423bf9ae="" id="a870f2c8-c755-4229-8fd9-9b2a2180ecfa" transform="matrix(1.0686999003092448,0,0,1.0686999003092448,0.5643196823246015,0.6046235385554652)" stroke="none" fill="black"><path d="M99.469 35.923a10.97 10.97 0 0 0-10.179-7.541l-21.8-.44-7.156-20.601C58.788 2.951 54.639 0 50.002 0c-4.65 0-8.801 2.956-10.332 7.356l-7.162 20.586-21.799.44A10.973 10.973 0 0 0 .521 35.95c-1.418 4.437.117 9.295 3.811 12.081L21.7 61.207l-6.307 20.862a10.948 10.948 0 0 0 4.039 12.017c3.707 2.692 8.955 2.736 12.683.126l17.888-12.438 17.901 12.448a10.965 10.965 0 0 0 6.241 1.961c2.291 0 4.509-.719 6.429-2.094 3.755-2.728 5.379-7.553 4.04-12.02L78.3 61.207l17.375-13.173c3.7-2.808 5.225-7.666 3.794-12.111zM90.5 41.211L68.376 57.985l8.04 26.55c.298.994-.044 2.025-.849 2.608a2.421 2.421 0 0 1-2.786.039L50.002 71.347 27.216 87.19a2.404 2.404 0 0 1-2.752-.029 2.351 2.351 0 0 1-.875-2.614l8.029-26.562L9.499 41.207a2.395 2.395 0 0 1-.828-2.626 2.39 2.39 0 0 1 2.217-1.639l27.749-.561 9.12-26.215a2.384 2.384 0 0 1 2.246-1.604c1.008 0 1.914.65 2.248 1.604l9.107 26.215 27.755.561a2.385 2.385 0 0 1 2.213 1.626 2.43 2.43 0 0 1-.826 2.643z"></path></g><!----></svg>